Coordinates
version=1
nRows=32
nColumns=12
inDegrees=yes

Units are S.I. units (second, meters, Newtons, ...)
Angles are in degrees

endheader
time	SC_y	SC_z	SC_x	AC_y	AC_z	AC_x	GH_y	GH_z	GH_yy	EL_x	PS_y
       0.0              -45.78          38.73          67.73          35.59         -3.296          -0.18          -87.5          69.99         -156.8          89.82          102.8
   0.04848              -45.77          38.73          67.72          35.59         -3.296        -0.1819         -87.49          69.99         -156.8          89.83          102.7
   0.09696              -45.77          38.72          67.72          35.59         -3.297        -0.1839         -87.49          69.99         -156.8          89.83          102.7
    0.1454              -45.76          38.72          67.71          35.59         -3.297         -0.186         -87.48          69.99         -156.7          89.83          102.7
    0.1939              -45.76          38.72           67.7          35.59         -3.297        -0.1883         -87.48          69.99         -156.7          89.84          102.7
    0.2424              -45.76          38.72          67.69          35.59         -3.297        -0.1908         -87.48          69.99         -156.6          89.84          102.7
    0.2909              -45.75          38.71          67.68          35.59         -3.298        -0.1934         -87.47          69.99         -156.6          89.85          102.7
    0.3394              -45.75          38.71          67.67          35.59         -3.298        -0.1962         -87.46          69.99         -156.5          89.85          102.7
    0.3878              -45.74          38.71          67.65          35.59         -3.298        -0.1991         -87.46          69.99         -156.4          89.86          102.7
    0.4363              -45.74          38.71          67.64          35.59         -3.298        -0.2023         -87.45          69.98         -156.4          89.86          102.7
    0.4848              -45.73           38.7          67.63          35.59         -3.299        -0.2058         -87.45          69.98         -156.3          89.87          102.7
    0.5333              -45.72           38.7          67.61          35.59         -3.299        -0.2095         -87.44          69.98         -156.2          89.87          102.7
    0.5818              -45.72           38.7           67.6          35.58           -3.3        -0.2135         -87.43          69.98         -156.1          89.88          102.7
    0.6303              -45.71          38.69          67.58          35.58           -3.3        -0.2178         -87.42          69.98         -156.0          89.89          102.7
    0.6787               -45.7          38.69          67.56          35.58           -3.3        -0.2224         -87.41          69.98         -155.9          89.89          102.6
    0.7272              -45.69          38.68          67.54          35.58         -3.301        -0.2275          -87.4          69.98         -155.8           89.9          102.6
    0.7757              -45.68          38.68          67.52          35.58         -3.301         -0.233         -87.39          69.98         -155.7          89.91          102.6
    0.8242              -45.67          38.67          67.49          35.58         -3.302         -0.239         -87.38          69.97         -155.6          89.92          102.6
    0.8727              -45.66          38.66          67.47          35.58         -3.303        -0.2455         -87.37          69.97         -155.5          89.93          102.6
    0.9211              -45.65          38.66          67.44          35.57         -3.303        -0.2526         -87.35          69.97         -155.3          89.94          102.6
    0.9696              -45.63          38.65          67.41          35.57         -3.304        -0.2605         -87.34          69.97         -155.1          89.96          102.5
     1.018              -45.62          38.64          67.37          35.57         -3.305        -0.2691         -87.32          69.97         -155.0          89.97          102.5
     1.067               -45.6          38.63          67.33          35.57         -3.306        -0.2787          -87.3          69.96         -154.8          89.99          102.5
     1.115              -45.58          38.62          67.29          35.56         -3.307        -0.2893         -87.28          69.96         -154.5          90.01          102.5
     1.164              -45.56          38.61          67.24          35.56         -3.308         -0.301         -87.26          69.96         -154.3          90.02          102.4
     1.212              -45.54           38.6          67.19          35.56         -3.309        -0.3142         -87.23          69.95         -154.0          90.05          102.4
     1.261              -45.51          38.58          67.13          35.55         -3.311        -0.3289         -87.21          69.95         -153.7          90.07          102.4
     1.309              -45.48          38.57          67.07          35.55         -3.313        -0.3454         -87.17          69.94         -153.3           90.1          102.3
     1.357              -45.45          38.55          66.99          35.54         -3.314        -0.3641         -87.14          69.94         -152.9          90.13          102.3
     1.406              -45.41          38.53           66.9          35.54         -3.316        -0.3853          -87.1          69.93         -152.5          90.17          102.2
     1.454              -45.37          38.51          66.81          35.53         -3.319        -0.4095         -87.05          69.92         -152.0          90.21          102.1
     1.503              -45.32          38.48          66.69          35.52         -3.322        -0.4373         -86.99          69.92         -151.4          90.25          102.1
